<svg xmlns="http://www.w3.org/2000/svg" xmlns:xlink="http://www.w3.org/1999/xlink" viewBox="0 0 30 30">
  <g transform="translate(-549.72-579.12)">
    <path d="m3432 1328.36c0 4.418-3.582 8-8 8-4.418 0-8-3.582-8-8 0-4.418 3.582-8 8-8 4.418 0 8 3.582 8 8" transform="matrix(1.125 0 0 1.125-3287.28-900.29)" fill="#4285f4"/>
  </g>

  <g>
    <svg xmlns="http://www.w3.org/2000/svg" xmlns:xlink="http://www.w3.org/1999/xlink" version="1.1" id="Capa_1" x="7.7" y="7.7" width="14.7" height="14.7" viewBox="0 0 589.381 589.381" style="enable-background:new 0 0 589.381 589.381;" xml:space="preserve">
 <g>
	<g>
		<path d="M502.713,86.666c-27.004-27.004-58.461-48.21-93.498-63.03C372.918,8.284,334.387,0.5,294.69,0.5    s-78.229,7.784-114.525,23.136c-35.037,14.819-66.495,36.025-93.499,63.03s-48.21,58.461-63.03,93.498    C8.284,216.461,0.5,254.994,0.5,294.689c0,39.696,7.784,78.229,23.137,114.525c14.82,35.037,36.025,66.494,63.03,93.499    c27.004,27.004,58.461,48.21,93.499,63.03c36.296,15.352,74.829,23.137,114.526,23.137c39.696,0,78.227-7.784,114.526-23.137    c35.035-14.82,66.494-36.025,93.498-63.03s48.209-58.461,63.029-93.499c15.352-36.296,23.137-74.828,23.137-114.525    c0-39.697-7.785-78.228-23.137-114.525C550.924,145.127,529.717,113.67,502.713,86.666z M316.109,545.136v-98.583    c0-11.83-9.59-21.42-21.419-21.42c-11.83,0-21.42,9.59-21.42,21.42v98.583C151.541,534.861,54.518,437.838,44.244,316.109h98.583    c11.83,0,21.42-9.59,21.42-21.42c0-11.83-9.59-21.42-21.42-21.42H44.244C54.518,151.541,151.541,54.518,273.27,44.244v98.583    c0,11.83,9.59,21.42,21.42,21.42c11.83,0,21.419-9.59,21.419-21.42V44.244C437.838,54.518,534.861,151.541,545.135,273.27h-98.582    c-11.83,0-21.42,9.59-21.42,21.42c0,11.83,9.59,21.42,21.42,21.42h98.582C534.861,437.838,437.838,534.861,316.109,545.136z" fill="#FFFFFF"/>
		<path d="M294.691,589.381c-39.763,0-78.36-7.798-114.721-23.176c-35.097-14.847-66.608-36.089-93.657-63.138    c-27.049-27.05-48.292-58.561-63.137-93.658C7.797,373.051,0,334.453,0,294.689c0-39.763,7.797-78.361,23.176-114.72    c14.845-35.096,36.087-66.606,63.137-93.657c27.049-27.05,58.56-48.292,93.657-63.137C216.329,7.797,254.926,0,294.69,0    c39.763,0,78.361,7.797,114.719,23.176c35.097,14.844,66.607,36.086,93.657,63.137c27.05,27.05,48.293,58.561,63.138,93.657    c15.379,36.361,23.177,74.958,23.177,114.72c0,39.763-7.798,78.36-23.176,114.72c-14.846,35.098-36.088,66.608-63.137,93.658    c-27.046,27.047-58.557,48.289-93.657,63.137C373.051,581.583,334.453,589.381,294.691,589.381z M294.69,1    c-39.629,0-78.096,7.771-114.331,23.097c-34.978,14.794-66.382,35.965-93.34,62.923c-26.958,26.959-48.128,58.363-62.923,93.339    C8.771,216.594,1,255.061,1,294.689c0,39.63,7.771,78.096,23.097,114.331c14.794,34.978,35.965,66.382,62.923,93.34    c26.958,26.957,58.361,48.128,93.34,62.923c36.236,15.326,74.703,23.098,114.331,23.098c39.627,0,78.094-7.771,114.332-23.098    c34.98-14.797,66.385-35.968,93.339-62.923c26.957-26.959,48.128-58.362,62.922-93.34c15.326-36.236,23.098-74.703,23.098-114.331    c0-39.627-7.771-78.093-23.098-114.331c-14.795-34.977-35.966-66.381-62.924-93.339c-26.959-26.958-58.362-48.129-93.339-62.923    C372.785,8.771,334.318,1,294.69,1z M315.609,545.68v-99.127c0-11.535-9.385-20.92-20.919-20.92    c-11.535,0-20.92,9.385-20.92,20.92v99.127l-0.542-0.046c-58.991-4.979-114.613-30.855-156.62-72.862    c-42.007-42.007-67.883-97.629-72.862-156.62l-0.046-0.542h99.127c11.535,0,20.92-9.385,20.92-20.92s-9.385-20.92-20.92-20.92    H43.7l0.046-0.542c4.979-58.991,30.854-114.613,72.862-156.62c42.007-42.007,97.629-67.883,156.62-72.861l0.542-0.046v99.126    c0,11.535,9.385,20.92,20.92,20.92c11.535,0,20.919-9.385,20.919-20.92V43.7l0.542,0.046    c58.991,4.979,114.613,30.854,156.62,72.861s67.883,97.629,72.861,156.62l0.046,0.542h-99.126c-11.535,0-20.92,9.385-20.92,20.92    s9.385,20.92,20.92,20.92h99.126l-0.046,0.542c-4.979,58.991-30.854,114.613-72.861,156.62s-97.629,67.884-156.62,72.862    L315.609,545.68z M44.789,316.609c5.07,58.556,30.813,113.742,72.526,155.455c41.712,41.713,96.899,67.456,155.455,72.526v-98.038    c0-12.087,9.833-21.92,21.92-21.92s21.919,9.833,21.919,21.92v98.038c58.557-5.07,113.742-30.813,155.455-72.526    c41.712-41.713,67.455-96.899,72.525-155.455h-98.037c-12.087,0-21.92-9.833-21.92-21.92s9.833-21.92,21.92-21.92h98.037    c-5.07-58.556-30.813-113.743-72.525-155.455c-41.713-41.712-96.898-67.456-155.455-72.526v98.038    c0,12.087-9.833,21.92-21.919,21.92s-21.92-9.833-21.92-21.92V44.789c-58.556,5.07-113.743,30.813-155.455,72.526    c-41.713,41.712-67.456,96.898-72.526,155.455h98.039c12.086,0,21.92,9.833,21.92,21.92s-9.833,21.92-21.92,21.92H44.789z" fill="#FFFFFF"/>
	</g>
	<g>
    <svg xmlns="http://www.w3.org/2000/svg" x="160" y="160" width="270" height="270" viewBox="0 0 30 30">
      <g transform="translate(-549.72-579.12)">
        <path d="m3432 1328.36c0 4.418-3.582 8-8 8-4.418 0-8-3.582-8-8 0-4.418 3.582-8 8-8 4.418 0 8 3.582 8 8" transform="matrix(1.125 0 0 1.125-3287.28-900.29)" fill="#FFFFFF"/>
      </g>
    </svg>
	</g>
</g>
<g>
</g>
<g>
</g>
<g>
</g>
<g>
</g>
<g>
</g>
<g>
</g>
<g>
</g>
<g>
</g>
<g>
</g>
<g>
</g>
<g>
</g>
<g>
</g>
<g>
</g>
<g>
</g>
<g>
</g>
</svg>
  </g>

</svg>
