<svg xmlns="http://www.w3.org/2000/svg" viewBox="0 0 22 22"><g transform="translate(-553.72-583.12)"><g color="#000"><path transform="scale(-1 1)" fill="#eff0f1" d="m-575.72 583.12h22v22h-22z"/><g fill="#dedede"><path d="m553.72 583.12h22v22h-22z"/><path fill-opacity="0" d="m555.72 585.12h17v17h-17z"/></g></g><g><svg xmlns="http://www.w3.org/2000/svg" xmlns:xlink="http://www.w3.org/1999/xlink" version="1.1" id="Capa_1" x="554.6px" y="585.7px" viewBox="0 0 525.153 525.153" style="enable-background:new 0 0 525.153 525.153;" xml:space="preserve" width="19px" height="19px">
  <g>
    <path d="M52.526,105.052H0.011v367.629c0,28.84,23.632,52.471,52.515,52.471h367.585v-52.471H52.526V105.052z M472.648,0H157.557   c-28.883,0-52.493,23.632-52.493,52.471v315.135c0,28.84,23.632,52.471,52.471,52.471h315.091   c28.883,0,52.515-23.632,52.515-52.471V52.471C525.163,23.632,501.532,0,472.648,0z M446.391,236.341H341.36v105.052h-52.515   V236.34H183.814V183.76h105.009V78.817h52.515v104.965h105.052V236.341z" fill="#34a853"/>
  </g>
</svg></g></g></svg>
