<svg xmlns="http://www.w3.org/2000/svg" viewBox="0 0 22 22"><g transform="translate(-553.72-583.12)"><g><svg version="1.1" id="Layer_1" xmlns="http://www.w3.org/2000/svg" xmlns:xlink="http://www.w3.org/1999/xlink" x="555px" y="583.8px" width="21px" height="21px"
		 viewBox="0 0 512 512" style="enable-background:new 0 0 512 512;" xml:space="preserve">
	<g>
		<g>
			<path d="M343.064,223.043h-9.875V193.19c0-42.563-34.627-77.188-77.188-77.188s-77.188,34.627-77.188,77.188v29.853h-9.875
				c-8.284,0-15,6.716-15,15v142.957c0,8.284,6.716,15,15,15h174.127c8.284,0,15-6.716,15-15V238.042
				C358.063,229.758,351.347,223.043,343.064,223.043z M255.999,345.353c-19.759,0-35.833-16.074-35.833-35.833
				c0-19.759,16.075-35.834,35.833-35.834s35.833,16.075,35.833,35.834C291.832,329.279,275.758,345.353,255.999,345.353z
				 M303.188,223.043h-94.377V193.19c0-26.021,21.169-47.189,47.189-47.189s47.189,21.169,47.189,47.189V223.043z" fill="#FFFFFF"/>
		</g>
	</g>
	<g>
		<g>
			<path d="M490.565,256c0-128.174-102.557-232.246-230.292-234.513l-31.9-19.316c-7.088-4.292-16.311-2.025-20.601,5.062
				c-3.719,6.143-2.505,13.885,2.497,18.635C103.627,46.829,21.435,141.023,21.435,256c0,128.174,102.557,232.246,230.292,234.513
				l31.9,19.316c7.089,4.292,16.311,2.022,20.601-5.062c3.719-6.143,2.505-13.885-2.497-18.635
				C408.373,465.171,490.565,370.976,490.565,256z M296.639,456.505c5.241-5.854,5.106-14.843-0.486-20.516
				c-5.814-5.9-15.312-5.969-21.212-0.154l-24.994,24.634C139.939,457.256,51.433,366.773,51.433,256
				c0-98.886,70.53-181.604,163.925-200.505c-5.241,5.854-5.106,14.843,0.486,20.516c5.815,5.901,15.313,5.969,21.212,0.154
				l24.994-24.634C372.059,54.744,460.564,145.227,460.564,256C460.565,354.886,390.035,437.604,296.639,456.505z" fill="#FFFFFF"/>
		</g>
	</g>
	</svg></g></g></svg>
